<svg xmlns="http://www.w3.org/2000/svg" width="67" height="54" viewBox="0 0 67 54">
    <g fill="none" fill-rule="evenodd">
        <circle cx="47" cy="15" r="15" fill="#FFCE00"/>
        <g fill="#333" fill-rule="nonzero">
            <path d="M51.297 45.053a1.05 1.05 0 0 1 1.047 1.052c0 .87.704 1.58 1.57 1.58.866 0 1.57-.71 1.57-1.58 0-.87-.704-1.579-1.57-1.579a1.05 1.05 0 0 1-1.047-1.052 1.05 1.05 0 0 1 1.047-1.053c2.02 0 3.664 1.653 3.664 3.684 0 2.032-1.644 3.684-3.664 3.684-2.02 0-3.664-1.652-3.664-3.684a1.05 1.05 0 0 1 1.047-1.052zM10.469 45.053a1.05 1.05 0 0 1 1.047 1.052c0 .87.704 1.58 1.57 1.58.866 0 1.57-.71 1.57-1.58 0-.87-.704-1.579-1.57-1.579a1.05 1.05 0 0 1-1.047-1.052 1.05 1.05 0 0 1 1.047-1.053c2.02 0 3.664 1.653 3.664 3.684 0 2.032-1.644 3.684-3.664 3.684-2.02 0-3.664-1.652-3.664-3.684a1.05 1.05 0 0 1 1.047-1.052zM10.469 35.053h48.156a1.05 1.05 0 0 1 1.047 1.052 1.05 1.05 0 0 1-1.047 1.053H10.469a1.05 1.05 0 0 1-1.047-1.053 1.05 1.05 0 0 1 1.047-1.052z"/>
            <path d="M0 38.21c0-.2.057-.387.154-.547.393-2.007 1.545-3.684 3.393-4.905 1.845-1.217 4.368-1.916 6.922-1.916h9.44l3.89-7.261a6.164 6.164 0 0 1 4.467-3.186v-2.184c0-2.322 1.878-4.211 4.187-4.211h8.375c2.31 0 4.188 1.889 4.188 4.21v2.106h1.322a6.207 6.207 0 0 1 5.222 2.895l4.488 5.604c.734.118 1.432.224 2.111.327 2.554.389 4.57.695 6.049 1.272C64.898 30.683 67 31.502 67 34v8.421c0 2.902-2.348 5.263-5.234 5.263-.054 0-.105-.005-.156-.013-.725 3.606-3.9 6.329-7.696 6.329-3.792 0-6.964-2.717-7.693-6.316H20.78c-.73 3.6-3.902 6.316-7.694 6.316s-6.964-2.717-7.693-6.316H1.047A1.05 1.05 0 0 1 0 46.632v-7.369c0-.263.015-.521.038-.776A1.056 1.056 0 0 1 0 38.211zm4.188-3.157c-.061 0-.12-.007-.178-.017-.708.607-1.223 1.315-1.539 2.122h1.716c.578 0 1.047-.472 1.047-1.053 0-.58-.47-1.052-1.046-1.052zm18.1-4.21h24.62c.458 0 .864-.24 1.087-.641a1.241 1.241 0 0 0-.027-1.266l-1.78-2.907a.945.945 0 0 0-.8-.45H25.125l-.018-.001-2.82 5.264zM42.922 18.21c0-1.161-.94-2.106-2.094-2.106h-8.375a2.102 2.102 0 0 0-2.094 2.106v2.105h12.563V18.21zM64.906 34c-.577 0-1.047.472-1.047 1.053 0 .58.47 1.052 1.047 1.052V34zM53.914 51.895c3.175 0 5.758-2.597 5.758-5.79 0-3.192-2.583-5.79-5.758-5.79s-5.758 2.598-5.758 5.79c0 3.193 2.583 5.79 5.758 5.79zm-40.828 0c3.175 0 5.758-2.597 5.758-5.79 0-3.192-2.583-5.79-5.758-5.79s-5.758 2.598-5.758 5.79c0 3.193 2.583 5.79 5.758 5.79zM2.094 45.579h3.16c.27-4.108 3.679-7.368 7.832-7.368 4.153 0 7.562 3.26 7.832 7.368h25.164c.27-4.108 3.679-7.368 7.832-7.368 4.154 0 7.562 3.26 7.832 7.369l.02-.001c1.731 0 3.14-1.417 3.14-3.158v-4.21c-1.732 0-3.14-1.417-3.14-3.158 0-1.16.625-2.175 1.554-2.724-1.124-.406-2.894-.713-5.474-1.105-.805-.123-1.638-.25-2.53-.396a1.045 1.045 0 0 1-.647-.378l-4.78-5.968a1.062 1.062 0 0 1-.076-.108 4.102 4.102 0 0 0-3.475-1.953H29.235a4.062 4.062 0 0 0-2.73 1.053H45.39a3.05 3.05 0 0 1 2.583 1.451l1.78 2.908c.642 1.05.669 2.32.07 3.396a3.295 3.295 0 0 1-2.913 1.718H20.937c-.07 0-.14-.007-.207-.02-.064.012-.129.02-.195.02H10.469c-1.493 0-2.96.275-4.224.775a3.158 3.158 0 0 1 1.083 2.383c0 1.741-1.409 3.158-3.14 3.158H2.093v6.316z"/>
            <path d="M39.781 17.158c.275 0 .546.112.74.308.196.196.307.468.307.745a1.051 1.051 0 0 1-1.047 1.053 1.051 1.051 0 0 1-.74-1.798c.195-.196.465-.308.74-.308zM36.64 17.158c.275 0 .546.112.741.308.195.196.307.468.307.745a1.051 1.051 0 0 1-1.047 1.053 1.051 1.051 0 0 1-.741-1.798c.195-.196.466-.308.74-.308zM33.5 17.158c.275 0 .546.112.74.308.196.196.307.468.307.745a1.051 1.051 0 0 1-1.047 1.053 1.051 1.051 0 0 1-.74-1.798c.194-.196.465-.308.74-.308z"/>
        </g>
    </g>
</svg>
