<svg xmlns="http://www.w3.org/2000/svg" width="42" height="46" viewBox="0 0 42 46">
    <g fill="none" fill-rule="evenodd" transform="translate(1)">
        <circle cx="26" cy="15" r="15" fill="#FFCE00"/>
        <g fill="#333" fill-rule="nonzero">
            <path stroke="#333" stroke-width=".3" d="M22.4 22.617c-1.163-.685-2.704-1.172-4.582-1.448a1.704 1.704 0 0 1-1.203-.786 1.819 1.819 0 0 1-.215-1.464c1.119-4.01 2.022-9.372-.03-12.14C15.495 5.6 14.193 5 12.5 5c-1.692 0-2.994.599-3.87 1.78-2.051 2.767-1.148 8.128-.029 12.139.139.497.06 1.03-.215 1.464a1.703 1.703 0 0 1-1.203.786c-1.878.276-3.42.763-4.582 1.448C.924 23.605.037 25.034.037 26.75v17.466c0 .433.345.784.77.784h23.386c.425 0 .77-.351.77-.784V26.75c0-1.716-.886-3.145-2.564-4.133zm-14.997.104a3.263 3.263 0 0 0 2.274-1.485 3.412 3.412 0 0 0 .405-2.746C8.635 13.305 8.556 9.482 9.86 7.725c.577-.778 1.441-1.156 2.641-1.156s2.065.378 2.642 1.156c1.303 1.757 1.223 5.58-.223 10.765a3.412 3.412 0 0 0 .404 2.746 3.264 3.264 0 0 0 2.275 1.485c2.374.35 5.156 1.199 5.722 3.244H1.68c.566-2.046 3.348-2.894 5.723-3.244zm11.733 20.71v-5.839a.777.777 0 0 0-.77-.784.777.777 0 0 0-.77.784v5.84H13.27v-5.84a.777.777 0 0 0-.77-.784.777.777 0 0 0-.77.784v5.84H7.338v-5.84a.777.777 0 0 0-.77-.784.777.777 0 0 0-.77.784v5.84h-4.22V32.098h21.846V43.43h-4.287zm4.287-12.9H1.577v-2.997h21.846v2.996z"/>
            <path d="M12.5 7.935c-1.231 0-2.233 1.02-2.233 2.275s1.002 2.276 2.233 2.276 2.233-1.021 2.233-2.276c0-1.254-1.002-2.275-2.233-2.275zm0 2.982a.701.701 0 0 1-.693-.707c0-.39.31-.706.693-.706a.7.7 0 0 1 .693.706.7.7 0 0 1-.693.707zM14.317 23.51H8.666a.777.777 0 0 0-.77.784c0 .433.345.784.77.784h5.65c.426 0 .77-.35.77-.784a.777.777 0 0 0-.77-.784zM16.335 23.51c-.991 0-.993 1.568 0 1.568.99 0 .992-1.568 0-1.568z"/>
        </g>
    </g>
</svg>
