<svg xmlns="http://www.w3.org/2000/svg" width="51" height="45" viewBox="0 0 51 45">
    <g fill="none" fill-rule="evenodd" transform="translate(1)">
        <circle cx="35" cy="15" r="15" fill="#FFCE00"/>
        <g fill="#333" fill-rule="nonzero" stroke="#333">
            <path d="M20 17c-4.411 0-8 3.589-8 8s3.589 8 8 8 8-3.589 8-8-3.589-8-8-8zm0 14.857A6.865 6.865 0 0 1 13.143 25 6.865 6.865 0 0 1 20 18.143 6.865 6.865 0 0 1 26.857 25 6.865 6.865 0 0 1 20 31.857z"/>
            <path d="M37.25 20.273h-1.467a16.576 16.576 0 0 0-1.643-3.969l1.037-1.037a2.01 2.01 0 0 0 .592-1.43c0-.54-.21-1.048-.592-1.43l-3.312-3.312c-.763-.763-2.095-.764-2.86 0l-1.037 1.037A16.623 16.623 0 0 0 24 8.49V7.022A2.024 2.024 0 0 0 21.978 5h-4.683a2.024 2.024 0 0 0-2.022 2.022v1.467c-1.39.375-2.72.926-3.969 1.644l-1.037-1.037c-.764-.765-2.097-.764-2.86 0l-3.312 3.311a2.01 2.01 0 0 0-.592 1.43c0 .54.21 1.048.592 1.43l1.037 1.038a16.556 16.556 0 0 0-1.643 3.968H2.022A2.024 2.024 0 0 0 0 22.295v4.682C0 28.093.907 29 2.022 29h1.467c.375 1.39.926 2.72 1.644 3.969l-1.037 1.037a2.01 2.01 0 0 0-.592 1.43c0 .54.21 1.048.592 1.43l3.311 3.311c.764.765 2.096.766 2.86 0l1.038-1.037a16.642 16.642 0 0 0 3.968 1.644v1.468c0 1.115.907 2.021 2.022 2.021h4.683A2.024 2.024 0 0 0 24 42.252v-1.468c1.39-.375 2.72-.925 3.969-1.644l1.037 1.037c.765.766 2.096.764 2.86 0l3.311-3.31a2.01 2.01 0 0 0 .592-1.431c0-.54-.21-1.048-.592-1.43l-1.037-1.037A16.642 16.642 0 0 0 35.784 29h1.468a2.024 2.024 0 0 0 2.021-2.022v-4.683a2.025 2.025 0 0 0-2.022-2.022zm.568 6.705a.568.568 0 0 1-.567.567h-2.612l-.131.563a15.19 15.19 0 0 1-1.9 4.59l-.306.49 1.846 1.846a.568.568 0 0 1 0 .803l-3.31 3.311a.568.568 0 0 1-.804 0l-1.846-1.846-.49.305a15.156 15.156 0 0 1-4.59 1.9l-.563.132v2.612a.568.568 0 0 1-.567.567h-4.683a.568.568 0 0 1-.568-.567v-2.612l-.562-.131a15.19 15.19 0 0 1-4.59-1.9l-.49-.306-1.846 1.846a.568.568 0 0 1-.803 0l-3.312-3.31a.568.568 0 0 1 0-.804l1.847-1.846-.306-.49a15.156 15.156 0 0 1-1.9-4.59l-.13-.563H2.021a.568.568 0 0 1-.567-.567v-4.683c0-.313.254-.568.567-.568h2.612l.131-.562a15.174 15.174 0 0 1 1.9-4.59l.306-.49-1.847-1.846a.568.568 0 0 1 0-.803l3.312-3.312a.568.568 0 0 1 .803 0l1.846 1.847.49-.306a15.156 15.156 0 0 1 4.59-1.9l.562-.13V7.021c0-.313.255-.567.568-.567h4.682c.314 0 .568.254.568.567v2.612l.563.131a15.19 15.19 0 0 1 4.59 1.9l.49.306 1.846-1.847a.568.568 0 0 1 .803 0l3.311 3.312a.568.568 0 0 1 0 .803l-1.846 1.846.305.49a15.14 15.14 0 0 1 1.9 4.59l.132.562h2.612c.313 0 .567.255.567.568v4.683z"/>
        </g>
    </g>
</svg>
