<svg xmlns="http://www.w3.org/2000/svg" width="57" height="54" viewBox="0 0 57 54">
    <g fill="none" fill-rule="evenodd">
        <circle cx="42" cy="15" r="15" fill="#FFCE00"/>
        <g fill="#333" fill-rule="nonzero">
            <path d="M38.841 24.945v-9.598c0-.5-.27-.946-.713-1.174a1.331 1.331 0 0 0-1.374.087c-9.497 6.598-14.948 7.446-18.637 7.446H7.571C3.396 21.706 0 25.119 0 29.314v2.827c0 4.195 3.396 7.608 7.571 7.608h5.062l5.495 13.38a1.323 1.323 0 0 0 1.73.729 1.339 1.339 0 0 0 .725-1.74L15.5 39.75h2.607c12.85 0 18.106 6.837 18.344 7.152a1.32 1.32 0 0 0 1.471.479c.54-.185.909-.685.909-1.261v-9.587a5.939 5.939 0 0 0 4.586-5.794 5.898 5.898 0 0 0-4.576-5.793zM2.65 32.14v-2.827c0-2.728 2.207-4.945 4.921-4.945h4.63v12.717H7.57c-2.714 0-4.921-2.217-4.921-4.945zm33.541 10.771c-2.942-2.435-8.718-5.826-18.084-5.826H14.84V24.37h3.267c3.785 0 9.215-.783 18.084-6.522v25.065zm2.65-9.185v-5.989a3.275 3.275 0 0 1 1.937 3 3.254 3.254 0 0 1-1.937 2.99zM51.648 29.401h-5.181c-.736 0-1.33.598-1.33 1.337 0 .74.594 1.337 1.33 1.337h5.181c.735 0 1.33-.598 1.33-1.337 0-.75-.595-1.337-1.33-1.337zM44.628 26.597a1.331 1.331 0 0 0 1.72.76l5.019-1.977a1.333 1.333 0 0 0 .746-1.729 1.322 1.322 0 0 0-1.72-.75l-5.019 1.979c-.67.26-1.005 1.032-.746 1.717zM51.367 36.075l-5.019-1.978a1.322 1.322 0 0 0-1.72.75c-.27.685.065 1.457.746 1.728l5.02 1.979c.162.065.324.087.486.087.53 0 1.028-.327 1.233-.848a1.325 1.325 0 0 0-.746-1.718z"/>
        </g>
    </g>
</svg>
